<svg xmlns="http://www.w3.org/2000/svg" width="240" height="160" viewBox="0 0 18 12">
  <g fill="none" fill-rule="evenodd">
    <rect width="18" height="12" fill="#5A91E5"/>
    <path fill="#FFF" fill-rule="nonzero" d="M9,2.25 C6.93055556,2.25 5.25,3.93055556 5.25,6 C5.25,8.06944444 6.93055556,9.75 9,9.75 C11.0694444,9.75 12.75,8.06944444 12.75,6 C12.75,3.93055556 11.0694444,2.25 9,2.25 Z M12.1805556,5.72222222 L11.2083333,5.72222222 C11.1666667,4.69444444 10.8888889,3.79166667 10.4583333,3.16666667 C11.4166667,3.65277778 12.0833333,4.61111111 12.1805556,5.72222222 Z M8.72222222,2.84722222 L8.72222222,5.72222222 L7.34722222,5.72222222 C7.40277778,4.29166667 7.98611111,3.09722222 8.72222222,2.84722222 Z M8.72222222,6.27777778 L8.72222222,9.15277778 C7.98611111,8.90277778 7.40277778,7.70833333 7.34722222,6.27777778 L8.72222222,6.27777778 Z M9.27777778,9.15277778 L9.27777778,6.27777778 L10.6527778,6.27777778 C10.5972222,7.70833333 10.0138889,8.90277778 9.27777778,9.15277778 Z M9.27777778,5.72222222 L9.27777778,2.84722222 C10.0138889,3.09722222 10.5972222,4.29166667 10.6527778,5.72222222 L9.27777778,5.72222222 Z M7.52777778,3.16666667 C7.09722222,3.79166667 6.81944444,4.69444444 6.77777778,5.72222222 L5.80555556,5.72222222 C5.91666667,4.61111111 6.58333333,3.65277778 7.52777778,3.16666667 Z M5.81944444,6.27777778 L6.79166667,6.27777778 C6.83333333,7.30555556 7.11111111,8.20833333 7.54166667,8.83333333 C6.58333333,8.34722222 5.91666667,7.38888889 5.81944444,6.27777778 Z M10.4722222,8.83333333 C10.9027778,8.20833333 11.1805556,7.30555556 11.2222222,6.27777778 L12.1944444,6.27777778 C12.0833333,7.38888889 11.4166667,8.34722222 10.4722222,8.83333333 Z"/>
  </g>
</svg>
